<svg width="20" height="21" viewBox="0 0 20 21" fill="none" xmlns="http://www.w3.org/2000/svg">
<mask id="mask0_85_4700" style="mask-type:alpha" maskUnits="userSpaceOnUse" x="0" y="1" width="20" height="20">
<path d="M4.97709 20.0145C5.85617 20.3265 6.80859 20.3707 7.72625 20.2293C8.10436 20.1707 8.49103 20.0741 8.85676 19.9283C8.92534 19.9779 8.99486 20.0269 9.06582 20.0741C9.51964 20.376 10.0168 20.6084 10.544 20.7489C11.0959 20.896 11.6602 20.9331 12.2293 20.9217C13.2941 20.9003 14.3617 20.7112 15.3584 20.3317C16.3523 19.9536 17.2733 19.385 18.019 18.6231C18.6948 17.9326 19.2324 17.1106 19.5795 16.2082C19.9124 15.342 20.0524 14.4053 19.9824 13.48C19.911 12.5343 19.6162 11.5976 19.139 10.778C18.7147 10.0494 18.1176 9.42271 17.4433 8.92079C16.748 8.40363 15.9618 8.01028 15.1218 7.79313C14.6198 7.6636 14.1003 7.60312 13.5846 7.62884C13.7198 7.25835 13.8027 6.8669 13.8336 6.47737C13.8836 5.84306 13.7955 5.1897 13.5103 4.61634C13.2274 4.04775 12.7121 3.61297 12.0978 3.4463C11.8545 3.38011 11.6031 3.3563 11.3535 3.3763C11.2735 2.85056 11.0288 2.37102 10.6502 1.99101C10.2054 1.5448 9.61251 1.26289 9.00677 1.11145C8.42865 0.96716 7.83101 0.958111 7.25385 1.11288C6.68859 1.26479 6.15856 1.5529 5.70759 1.92339C5.25424 2.29626 4.86805 2.75389 4.59708 3.27582C4.34279 3.76536 4.18802 4.31967 4.08897 4.86064C3.98801 5.41209 3.94467 6.02735 4.04086 6.60594C3.828 6.66404 3.61895 6.73833 3.41751 6.82976C1.77983 7.57312 0.733601 9.21223 0.27787 10.9023C0.0421468 11.7766 -0.0492846 12.6933 0.0254801 13.5962C0.09834 14.4786 0.352158 15.3167 0.761221 16.1006C1.21505 16.9697 1.82364 17.7649 2.53224 18.4421C3.23322 19.1126 4.05801 19.6883 4.97709 20.0145Z" fill="#B3B5B8"/>
<path d="M1.28314 16.4449C0.835507 15.7311 0.493111 14.9558 0.347867 14.1224C0.204529 13.2986 0.217862 12.4448 0.368344 11.6228C0.670736 9.97467 1.51315 8.34366 2.95225 7.41838C3.03035 7.36838 3.11035 7.32124 3.1913 7.27695C3.46084 6.99027 3.81085 6.79979 4.19706 6.71169C4.78993 6.57597 5.41425 6.64978 6.00808 6.80646C6.56334 6.89789 7.10145 7.09551 7.58338 7.39743C7.78862 7.49553 7.99006 7.60125 8.18768 7.71316C7.63242 7.14647 6.94383 6.74026 6.15809 6.56216C5.5433 6.42263 4.89947 6.41787 4.28373 6.5474C4.21134 6.13738 4.21849 5.71308 4.26754 5.30164C4.32802 4.79876 4.45564 4.30065 4.63231 3.82587C4.81517 3.33585 5.1209 2.8944 5.48473 2.52153C6.23571 1.75198 7.31003 1.2391 8.40007 1.34244C9.50773 1.44721 10.754 2.06342 11.0826 3.2068C11.083 3.2087 11.0835 3.21061 11.084 3.21251C11.174 3.3968 11.2516 3.58729 11.3154 3.7811C11.3421 3.86254 11.3678 3.9473 11.3902 4.03349C11.3921 3.91539 11.3897 3.79682 11.3826 3.67967C11.5359 3.66872 11.6902 3.67586 11.8431 3.70015C12.4221 3.79253 12.9474 4.14445 13.2512 4.6459C13.7865 5.53069 13.7374 6.69074 13.3693 7.64458C13.1231 7.66887 12.8783 7.7122 12.6374 7.77935C12.4374 7.83507 12.2421 7.90459 12.0526 7.98936C12.0512 7.98983 12.0507 7.99126 12.0493 7.99221C12.4559 7.88269 12.8774 7.80364 13.2969 7.8003C13.2998 7.79983 13.3031 7.79983 13.306 7.79935L13.3055 7.8003C13.3745 7.79983 13.4436 7.80221 13.5126 7.80602C13.5155 7.79935 13.5184 7.79268 13.5212 7.78602C13.8355 7.77459 14.1517 7.79459 14.4655 7.84268C15.3037 7.97174 16.1042 8.30032 16.8228 8.7451C17.528 9.18178 18.1666 9.74752 18.66 10.4161C19.1871 11.13 19.5429 11.98 19.7048 12.851C19.8681 13.7291 19.83 14.6363 19.5953 15.4977C19.3538 16.3816 18.9128 17.203 18.3328 17.9102C17.6866 18.6983 16.8766 19.3288 15.9584 19.7708C15.0256 20.2193 14.0022 20.4846 12.9726 20.5798C11.9007 20.6789 10.8078 20.6303 9.81917 20.166C9.58773 20.0574 9.36916 19.9308 9.16153 19.7912C9.31725 19.7136 9.46678 19.626 9.60821 19.5269C9.14534 19.6898 8.65865 19.7865 8.16911 19.806C7.33813 20.0074 6.43381 20.0308 5.59949 19.845C4.70517 19.646 3.88133 19.1712 3.17607 18.5974C2.43366 17.9916 1.79269 17.2573 1.28314 16.4449Z" fill="white"/>
<path d="M5.60093 19.8455C6.43477 20.0312 7.33957 20.0079 8.17056 19.8065C8.66058 19.7874 9.14725 19.6903 9.60965 19.5274C9.46822 19.6264 9.31869 19.7141 9.16297 19.7917C9.37108 19.9312 9.58918 20.0579 9.82062 20.1665C10.8092 20.6308 11.9016 20.6793 12.9741 20.5803C14.0036 20.485 15.027 20.2198 15.9599 19.7712C16.878 19.3293 17.6881 18.6988 18.3343 17.9107C18.9143 17.203 19.3553 16.382 19.5967 15.4982C19.8319 14.6367 19.8696 13.7291 19.7062 12.8514C19.5443 11.98 19.1881 11.1304 18.6614 10.4166C18.1681 9.74798 17.529 9.18225 16.8242 8.74556C16.1051 8.30031 15.3051 7.97173 14.467 7.84315C14.1532 7.79505 13.8365 7.77458 13.5227 7.78648C13.5198 7.79315 13.5169 7.79981 13.5141 7.80648C13.445 7.80267 13.376 7.80029 13.3069 7.80077L13.3074 7.79981C13.3041 7.80029 13.3012 7.80029 13.2984 7.80077C12.8788 7.8041 12.4569 7.88315 12.0507 7.99268C12.0521 7.9922 12.0526 7.99077 12.054 7.98982C12.2436 7.90506 12.4388 7.83553 12.6388 7.77981C12.8793 7.71314 13.1241 7.66933 13.3708 7.64505C13.5046 7.29789 13.5955 6.92359 13.6322 6.54501C13.5941 6.64834 13.5441 6.74692 13.4779 6.83882C13.3179 7.06217 13.0641 7.20313 12.785 7.15169C12.4498 7.08979 12.1769 6.82978 12.0764 6.50881C11.9736 6.18118 12.0136 5.83117 12.0183 5.49354C12.024 5.07733 11.9445 4.65255 11.8302 4.25397C11.774 4.05729 11.7045 3.8649 11.6226 3.67823C11.5431 3.67442 11.4631 3.6749 11.384 3.68061C11.3912 3.79776 11.3935 3.91633 11.3916 4.03443C11.3692 3.94824 11.3435 3.86348 11.3169 3.78204C11.2535 3.58823 11.1754 3.39774 11.0854 3.21345C11.085 3.21155 11.0845 3.20964 11.084 3.20774C10.9592 2.77343 10.7021 2.4158 10.3711 2.13293C10.7545 2.66581 10.9749 3.32107 10.9864 3.97348C10.994 4.39016 10.9164 4.81542 10.7202 5.18638C10.5259 5.55259 10.2211 5.8445 9.84348 6.01594C9.39346 6.22071 8.85487 6.25928 8.37152 6.17309C7.8353 6.07784 7.33624 5.80641 6.91146 5.47354C6.4924 5.14495 6.13381 4.7416 5.87047 4.27825C5.68808 3.95777 5.63141 3.55823 5.61141 3.19536C5.59808 2.95058 5.60618 2.64724 5.66142 2.35342C5.60141 2.40818 5.54236 2.46438 5.48569 2.52247C5.12187 2.89534 4.81614 3.33679 4.63328 3.82681C4.45613 4.30111 4.32851 4.79922 4.26851 5.30258C4.21946 5.71354 4.21231 6.13832 4.2847 6.54834C4.90043 6.41833 5.54427 6.42357 6.15905 6.5631C6.9448 6.7412 7.63387 7.14741 8.18865 7.7141C7.99102 7.60219 7.78959 7.49647 7.58434 7.39837C7.10242 7.09645 6.56431 6.89883 6.00905 6.8074C5.41521 6.65025 4.7909 6.57691 4.19802 6.71263C3.81182 6.80073 3.4618 6.99121 3.19227 7.27789C3.11131 7.32218 3.03179 7.36932 2.95321 7.41932C1.51411 8.34507 0.671702 9.97561 0.36931 11.6238C0.218352 12.4457 0.205019 13.2995 0.348834 14.1234C0.494077 14.9567 0.836473 15.732 1.28411 16.4459C1.79365 17.2583 2.43463 17.9926 3.17846 18.5983C3.88278 19.1717 4.70661 19.6464 5.60093 19.8455ZM14.7041 9.81179C15.2456 9.69131 15.827 9.6856 16.3642 9.83037C16.8471 9.96085 17.289 10.2128 17.6514 10.5571C18.4014 11.2699 18.7929 12.2962 18.9214 13.3067C19.0562 14.3691 18.9114 15.4806 18.43 16.4425C17.9533 17.3945 17.1747 18.2054 16.1847 18.6212C16.0866 18.6626 15.9866 18.6983 15.8851 18.7312C15.1013 19.0498 14.2341 19.1888 13.405 19.0159C12.8945 18.9098 12.4126 18.6797 12.0231 18.3316C11.5864 17.9416 11.2745 17.4211 11.0916 16.8673C10.7973 15.9763 10.8659 14.9877 11.0916 14.0896C11.3402 13.101 11.7945 12.149 12.4355 11.3542C13.015 10.6342 13.7851 10.0161 14.7041 9.81179ZM7.221 8.65604C7.47291 8.4846 7.76721 8.38317 8.06674 8.33412C8.68772 8.23173 9.3706 8.34507 9.9011 8.69127C10.1525 8.85557 10.364 9.07939 10.4949 9.35082C10.6264 9.62322 10.6659 9.92608 10.6345 10.2256C10.5902 10.6499 10.3849 11.0918 10.0325 11.3171C9.93871 11.4742 9.80062 11.5995 9.6268 11.6814C9.34822 11.8128 9.02297 11.8276 8.72105 11.7971C8.3677 11.7609 8.02007 11.6561 7.69911 11.5061C7.38148 11.3576 7.07908 11.1599 6.83669 10.9047C6.62145 10.678 6.45049 10.399 6.41049 10.0842C6.36716 9.74227 6.49668 9.41273 6.70335 9.14558C6.84669 8.95891 7.0267 8.78795 7.221 8.65604ZM2.06461 10.5432C1.95032 9.96751 2.03223 9.34844 2.29938 8.82509C2.56939 8.29602 3.04036 7.86315 3.61657 7.69552C4.1404 7.54266 4.68852 7.63219 5.12615 7.96172C5.55474 8.28459 5.83999 8.78033 5.97809 9.2932C6.11905 9.81656 6.12 10.3899 5.91857 10.898C5.89999 10.9452 5.87904 10.9904 5.85666 11.0356C5.84427 11.0752 5.83142 11.1142 5.81713 11.1528C5.62284 11.68 5.22235 12.1381 4.67995 12.3171C4.10469 12.5071 3.49514 12.3452 3.00798 12.0104C2.50844 11.6671 2.18223 11.1347 2.06461 10.5432ZM8.58724 16.052C8.84915 15.9882 9.15107 16.0954 9.28583 16.3363C9.4187 16.573 9.38489 16.8668 9.30631 17.1211C9.24345 17.6916 8.88344 18.2364 8.38151 18.5131C8.18865 18.6193 7.95102 18.7012 7.73006 18.6416C7.50244 18.5802 7.38386 18.3759 7.35195 18.1535C7.311 17.8669 7.37291 17.5573 7.48053 17.2906C7.58958 17.0197 7.74197 16.7606 7.92673 16.5344C8.09769 16.3258 8.31771 16.1177 8.58724 16.052ZM2.76988 17.2706C2.42367 16.7425 2.16509 16.1039 2.18842 15.463C2.20652 14.9691 2.44748 14.5148 2.91369 14.3148C3.38038 14.1143 3.9304 14.1958 4.38327 14.3934C4.85996 14.6015 5.24806 14.9434 5.54188 15.3691C5.82332 15.7773 6.04 16.242 6.15477 16.7249C6.21143 16.9644 6.24858 17.2273 6.22763 17.4811C6.21048 17.9054 6.05333 18.334 5.68475 18.575C5.2433 18.864 4.64804 18.7926 4.19469 18.5693C3.61229 18.2826 3.12418 17.8107 2.76988 17.2706Z" fill="#ECEADB"/>
<path d="M13.3764 20.3722C12.4683 20.2274 11.5859 19.9407 10.7511 19.5564C10.7101 19.5374 10.7101 19.475 10.754 19.4593C11.0559 19.3507 11.2849 19.0688 11.4659 18.8164C11.6126 18.6121 11.743 18.3911 11.8469 18.1602C11.8245 18.1368 11.8035 18.1121 11.7826 18.0883C11.7635 18.0954 11.744 18.1021 11.7249 18.1102C11.3792 18.2545 11.0783 18.4835 10.7587 18.6754C10.4225 18.8773 10.0539 19.0083 9.68106 19.1245C8.86722 19.3783 8.00671 19.544 7.15573 19.5988C6.42046 19.6464 5.67758 19.6188 4.95231 19.484C4.70611 19.4383 4.4623 19.3793 4.22229 19.3093C4.65612 19.5497 5.11851 19.7378 5.60091 19.845C6.43475 20.0307 7.33955 20.0074 8.17053 19.8059C8.66055 19.7869 9.14723 19.6897 9.60963 19.5269C9.4682 19.6259 9.31867 19.7136 9.16295 19.7912C9.37105 19.9307 9.58916 20.0574 9.82059 20.166C10.8092 20.6303 11.9016 20.6788 12.974 20.5798C13.2931 20.5503 13.6107 20.5026 13.926 20.4398C13.7422 20.4231 13.5588 20.4012 13.3764 20.3722Z" fill="#ECEADB"/>
<path d="M6.15762 6.56214C6.43905 6.62595 6.70763 6.71976 6.96288 6.83881C6.89431 6.79072 6.82431 6.74452 6.75383 6.69928C6.25667 6.38308 5.72141 6.1326 5.21473 5.83354C4.87186 5.63115 4.53089 5.40352 4.29945 5.07684C4.28755 5.15161 4.2766 5.22685 4.26755 5.30209C4.2185 5.71306 4.21135 6.13783 4.28374 6.54785C4.899 6.41785 5.54331 6.42261 6.15762 6.56214Z" fill="#ECEADB"/>
<path d="M4.81142 7.00026C5.44382 6.97835 6.08099 7.05312 6.68673 7.23789C7.15865 7.3817 7.61247 7.5979 8.00725 7.89505C7.89963 7.73124 7.7801 7.57552 7.64819 7.43075C7.62628 7.42027 7.60533 7.40885 7.58342 7.39837C7.1015 7.09645 6.56339 6.89883 6.00813 6.80739C5.4143 6.65024 4.78998 6.57691 4.1971 6.71263C3.8109 6.80073 3.46088 6.99121 3.19135 7.27789C3.1804 7.28408 3.16897 7.29074 3.15802 7.29694C3.68947 7.1155 4.25092 7.01931 4.81142 7.00026Z" fill="#ECEADB"/>
<path d="M14.4665 7.84263C14.1527 7.79454 13.836 7.77406 13.5221 7.78596C13.5193 7.79263 13.5164 7.7993 13.5136 7.80597C13.4445 7.80216 13.3755 7.79977 13.3064 7.80025L13.3069 7.7993C13.3036 7.79977 13.3007 7.79977 13.2979 7.80025C12.8783 7.80358 12.4564 7.88263 12.0502 7.99216C12.0516 7.99169 12.0521 7.99026 12.0535 7.9893C12.2431 7.90454 12.4383 7.83501 12.6383 7.7793C12.8788 7.71263 13.1236 7.66882 13.3702 7.64453C13.3807 7.61739 13.3902 7.59024 13.4002 7.56262C13.0893 7.595 12.7802 7.64548 12.4769 7.71549C11.9069 7.84644 11.3373 8.04788 10.8449 8.36884C11.1625 8.3598 11.4778 8.30979 11.793 8.26979C12.1745 8.22122 12.5521 8.20836 12.9359 8.23408C13.6322 8.28074 14.3146 8.42504 14.9913 8.5879C15.6746 8.75267 16.3461 8.97601 16.9789 9.28316C17.5694 9.56936 18.1252 9.92938 18.6195 10.3613C18.1323 9.71699 17.5104 9.16935 16.8247 8.74505C16.1051 8.29979 15.3046 7.97121 14.4665 7.84263Z" fill="#ECEADB"/>
<path d="M7.12292 16.9506C7.25292 16.6215 7.34388 16.2763 7.49198 15.9544C7.60437 15.7091 7.76342 15.501 7.97486 15.3443C8.14581 15.2053 8.34868 15.1048 8.5625 15.051C8.69346 15.0177 8.8287 15.002 8.96347 15.0034C9.00728 14.9996 9.05157 14.9962 9.09538 14.9943C9.28777 14.9858 9.48253 14.9972 9.67349 15.0291C9.66492 14.9839 9.62015 14.9443 9.58301 14.9253C9.22443 14.74 8.98394 14.3072 9.04585 13.9048C9.09919 13.5605 9.35444 13.28 9.59111 13.0424C9.73302 12.8995 9.8816 12.7643 10.0221 12.62C10.0359 12.6057 10.043 12.5909 10.0459 12.5757C10.1121 12.5276 10.1745 12.4738 10.2302 12.4138C10.1321 12.4938 10.0283 12.5671 9.91969 12.6304C9.5892 12.8243 9.213 12.9471 8.83061 12.9743C8.47774 12.999 8.12534 12.9176 7.79485 12.7981C7.30722 12.6214 6.71957 12.3019 6.44718 11.8242C6.44194 12.0695 6.3748 12.3085 6.20813 12.5038C6.00431 12.7423 5.69667 12.8671 5.39571 12.9295C5.03236 13.0052 4.65426 13.0028 4.28662 12.9638C3.91566 12.9247 3.54803 12.8476 3.19278 12.7328C3.11849 12.7162 3.04372 12.699 2.96991 12.6809C2.89848 12.6633 2.84943 12.7019 2.84467 12.7509C3.19373 12.9114 3.53231 13.0957 3.85946 13.2976C4.72426 13.8329 5.5381 14.5029 6.13193 15.3353C6.41385 15.7301 6.6429 16.1687 6.76814 16.6387C6.84053 16.9111 6.87387 17.1911 6.86815 17.4706C6.96435 17.3039 7.05196 17.1316 7.12292 16.9506Z" fill="#9B6F11"/>
<path d="M6.43096 12.7657C6.19429 13.2005 5.67474 13.4219 5.22139 13.5467C5.13329 13.571 5.04329 13.5919 4.95233 13.611C5.02091 13.6272 5.08901 13.6457 5.15615 13.6681C5.86999 13.9038 6.43096 14.4548 6.72955 15.1391C6.76812 15.2272 6.80145 15.3167 6.83145 15.4072C6.87193 15.2796 6.92765 15.1572 7.00575 15.0505C7.18956 14.8001 7.52196 14.6758 7.82673 14.7162C8.00817 14.7405 8.1715 14.8196 8.30579 14.9343C8.08007 14.4234 8.27912 13.8629 8.61723 13.4467C8.70247 13.3414 8.79676 13.2438 8.89772 13.1524C8.66438 13.2105 8.4258 13.2448 8.18579 13.2514C7.83482 13.261 7.44671 13.2205 7.1348 13.0481C6.89717 12.9167 6.68764 12.7262 6.52144 12.5085C6.50478 12.5971 6.47573 12.6838 6.43096 12.7657Z" fill="#E6A323"/>
</mask>
<g mask="url(#mask0_85_4700)">
<rect width="20" height="21" fill="#D9D9D9"/>
</g>
<mask id="mask1_85_4700" style="mask-type:alpha" maskUnits="userSpaceOnUse" x="0" y="0" width="10" height="20">
<rect width="10" height="20" fill="#D9D9D9"/>
</mask>
<g mask="url(#mask1_85_4700)">
<path d="M4.97709 20.0145C5.85617 20.3265 6.80859 20.3707 7.72625 20.2293C8.10436 20.1707 8.49103 20.0741 8.85676 19.9283C8.92534 19.9779 8.99486 20.0269 9.06582 20.0741C9.51964 20.376 10.0168 20.6084 10.544 20.7489C11.0959 20.896 11.6602 20.9331 12.2293 20.9217C13.2941 20.9003 14.3617 20.7112 15.3584 20.3317C16.3523 19.9536 17.2733 19.385 18.019 18.6231C18.6948 17.9326 19.2324 17.1106 19.5795 16.2082C19.9124 15.342 20.0524 14.4053 19.9824 13.48C19.911 12.5343 19.6162 11.5976 19.139 10.778C18.7147 10.0494 18.1176 9.42271 17.4433 8.92079C16.748 8.40363 15.9618 8.01028 15.1218 7.79313C14.6198 7.6636 14.1003 7.60312 13.5846 7.62884C13.7198 7.25835 13.8027 6.8669 13.8336 6.47737C13.8836 5.84306 13.7955 5.1897 13.5103 4.61634C13.2274 4.04775 12.7121 3.61297 12.0978 3.4463C11.8545 3.38011 11.6031 3.3563 11.3535 3.3763C11.2735 2.85056 11.0288 2.37102 10.6502 1.99101C10.2054 1.5448 9.61251 1.26289 9.00677 1.11145C8.42865 0.96716 7.83101 0.958111 7.25385 1.11288C6.68859 1.26479 6.15856 1.5529 5.70759 1.92339C5.25424 2.29626 4.86805 2.75389 4.59708 3.27582C4.34279 3.76536 4.18802 4.31967 4.08897 4.86064C3.98801 5.41209 3.94467 6.02735 4.04086 6.60594C3.828 6.66404 3.61895 6.73833 3.41751 6.82976C1.77983 7.57312 0.733601 9.21223 0.27787 10.9023C0.0421468 11.7766 -0.0492846 12.6933 0.0254801 13.5962C0.09834 14.4786 0.352158 15.3167 0.761221 16.1006C1.21505 16.9697 1.82364 17.7649 2.53224 18.4421C3.23322 19.1126 4.05801 19.6883 4.97709 20.0145Z" fill="#B3B5B8"/>
<path d="M1.28314 16.4449C0.835507 15.7311 0.493111 14.9558 0.347867 14.1224C0.204529 13.2986 0.217862 12.4448 0.368344 11.6228C0.670736 9.97467 1.51315 8.34366 2.95225 7.41838C3.03035 7.36838 3.11035 7.32124 3.1913 7.27695C3.46084 6.99027 3.81085 6.79979 4.19706 6.71169C4.78993 6.57597 5.41425 6.64978 6.00808 6.80646C6.56334 6.89789 7.10145 7.09551 7.58338 7.39743C7.78862 7.49553 7.99006 7.60125 8.18768 7.71316C7.63242 7.14647 6.94383 6.74026 6.15809 6.56216C5.5433 6.42263 4.89947 6.41787 4.28373 6.5474C4.21134 6.13738 4.21849 5.71308 4.26754 5.30164C4.32802 4.79876 4.45564 4.30065 4.63231 3.82587C4.81517 3.33585 5.1209 2.8944 5.48473 2.52153C6.23571 1.75198 7.31003 1.2391 8.40007 1.34244C9.50773 1.44721 10.754 2.06342 11.0826 3.2068C11.083 3.2087 11.0835 3.21061 11.084 3.21251C11.174 3.3968 11.2516 3.58729 11.3154 3.7811C11.3421 3.86254 11.3678 3.9473 11.3902 4.03349C11.3921 3.91539 11.3897 3.79682 11.3826 3.67967C11.5359 3.66872 11.6902 3.67586 11.8431 3.70015C12.4221 3.79253 12.9474 4.14445 13.2512 4.6459C13.7865 5.53069 13.7374 6.69074 13.3693 7.64458C13.1231 7.66887 12.8783 7.7122 12.6374 7.77935C12.4374 7.83507 12.2421 7.90459 12.0526 7.98936C12.0512 7.98983 12.0507 7.99126 12.0493 7.99221C12.4559 7.88269 12.8774 7.80364 13.2969 7.8003C13.2998 7.79983 13.3031 7.79983 13.306 7.79935L13.3055 7.8003C13.3745 7.79983 13.4436 7.80221 13.5126 7.80602C13.5155 7.79935 13.5184 7.79268 13.5212 7.78602C13.8355 7.77459 14.1517 7.79459 14.4655 7.84268C15.3037 7.97174 16.1042 8.30032 16.8228 8.7451C17.528 9.18178 18.1666 9.74752 18.66 10.4161C19.1871 11.13 19.5429 11.98 19.7048 12.851C19.8681 13.7291 19.83 14.6363 19.5953 15.4977C19.3538 16.3816 18.9128 17.203 18.3328 17.9102C17.6866 18.6983 16.8766 19.3288 15.9584 19.7708C15.0256 20.2193 14.0022 20.4846 12.9726 20.5798C11.9007 20.6789 10.8078 20.6303 9.81917 20.166C9.58773 20.0574 9.36916 19.9308 9.16153 19.7912C9.31725 19.7136 9.46678 19.626 9.60821 19.5269C9.14534 19.6898 8.65865 19.7865 8.16911 19.806C7.33813 20.0074 6.43381 20.0308 5.59949 19.845C4.70517 19.646 3.88133 19.1712 3.17607 18.5974C2.43366 17.9916 1.79269 17.2573 1.28314 16.4449Z" fill="white"/>
<path d="M5.60093 19.8455C6.43477 20.0312 7.33957 20.0079 8.17056 19.8065C8.66058 19.7874 9.14725 19.6903 9.60965 19.5274C9.46822 19.6264 9.31869 19.7141 9.16297 19.7917C9.37108 19.9312 9.58918 20.0579 9.82062 20.1665C10.8092 20.6308 11.9016 20.6793 12.9741 20.5803C14.0036 20.485 15.027 20.2198 15.9599 19.7712C16.878 19.3293 17.6881 18.6988 18.3343 17.9107C18.9143 17.203 19.3553 16.382 19.5967 15.4982C19.8319 14.6367 19.8696 13.7291 19.7062 12.8514C19.5443 11.98 19.1881 11.1304 18.6614 10.4166C18.1681 9.74798 17.529 9.18225 16.8242 8.74556C16.1051 8.30031 15.3051 7.97173 14.467 7.84315C14.1532 7.79505 13.8365 7.77458 13.5227 7.78648C13.5198 7.79315 13.5169 7.79981 13.5141 7.80648C13.445 7.80267 13.376 7.80029 13.3069 7.80077L13.3074 7.79981C13.3041 7.80029 13.3012 7.80029 13.2984 7.80077C12.8788 7.8041 12.4569 7.88315 12.0507 7.99268C12.0521 7.9922 12.0526 7.99077 12.054 7.98982C12.2436 7.90506 12.4388 7.83553 12.6388 7.77981C12.8793 7.71314 13.1241 7.66933 13.3708 7.64505C13.5046 7.29789 13.5955 6.92359 13.6322 6.54501C13.5941 6.64834 13.5441 6.74692 13.4779 6.83882C13.3179 7.06217 13.0641 7.20313 12.785 7.15169C12.4498 7.08979 12.1769 6.82978 12.0764 6.50881C11.9736 6.18118 12.0136 5.83117 12.0183 5.49354C12.024 5.07733 11.9445 4.65255 11.8302 4.25397C11.774 4.05729 11.7045 3.8649 11.6226 3.67823C11.5431 3.67442 11.4631 3.6749 11.384 3.68061C11.3912 3.79776 11.3935 3.91633 11.3916 4.03443C11.3692 3.94824 11.3435 3.86348 11.3169 3.78204C11.2535 3.58823 11.1754 3.39774 11.0854 3.21345C11.085 3.21155 11.0845 3.20964 11.084 3.20774C10.9592 2.77343 10.7021 2.4158 10.3711 2.13293C10.7545 2.66581 10.9749 3.32107 10.9864 3.97348C10.994 4.39016 10.9164 4.81542 10.7202 5.18638C10.5259 5.55259 10.2211 5.8445 9.84348 6.01594C9.39346 6.22071 8.85487 6.25928 8.37152 6.17309C7.8353 6.07784 7.33624 5.80641 6.91146 5.47354C6.4924 5.14495 6.13381 4.7416 5.87047 4.27825C5.68808 3.95777 5.63141 3.55823 5.61141 3.19536C5.59808 2.95058 5.60618 2.64724 5.66142 2.35342C5.60141 2.40818 5.54236 2.46438 5.48569 2.52247C5.12187 2.89534 4.81614 3.33679 4.63328 3.82681C4.45613 4.30111 4.32851 4.79922 4.26851 5.30258C4.21946 5.71354 4.21231 6.13832 4.2847 6.54834C4.90043 6.41833 5.54427 6.42357 6.15905 6.5631C6.9448 6.7412 7.63387 7.14741 8.18865 7.7141C7.99102 7.60219 7.78959 7.49647 7.58434 7.39837C7.10242 7.09645 6.56431 6.89883 6.00905 6.8074C5.41521 6.65025 4.7909 6.57691 4.19802 6.71263C3.81182 6.80073 3.4618 6.99121 3.19227 7.27789C3.11131 7.32218 3.03179 7.36932 2.95321 7.41932C1.51411 8.34507 0.671702 9.97561 0.36931 11.6238C0.218352 12.4457 0.205019 13.2995 0.348834 14.1234C0.494077 14.9567 0.836473 15.732 1.28411 16.4459C1.79365 17.2583 2.43463 17.9926 3.17846 18.5983C3.88278 19.1717 4.70661 19.6464 5.60093 19.8455ZM14.7041 9.81179C15.2456 9.69131 15.827 9.6856 16.3642 9.83037C16.8471 9.96085 17.289 10.2128 17.6514 10.5571C18.4014 11.2699 18.7929 12.2962 18.9214 13.3067C19.0562 14.3691 18.9114 15.4806 18.43 16.4425C17.9533 17.3945 17.1747 18.2054 16.1847 18.6212C16.0866 18.6626 15.9866 18.6983 15.8851 18.7312C15.1013 19.0498 14.2341 19.1888 13.405 19.0159C12.8945 18.9098 12.4126 18.6797 12.0231 18.3316C11.5864 17.9416 11.2745 17.4211 11.0916 16.8673C10.7973 15.9763 10.8659 14.9877 11.0916 14.0896C11.3402 13.101 11.7945 12.149 12.4355 11.3542C13.015 10.6342 13.7851 10.0161 14.7041 9.81179ZM7.221 8.65604C7.47291 8.4846 7.76721 8.38317 8.06674 8.33412C8.68772 8.23173 9.3706 8.34507 9.9011 8.69127C10.1525 8.85557 10.364 9.07939 10.4949 9.35082C10.6264 9.62322 10.6659 9.92608 10.6345 10.2256C10.5902 10.6499 10.3849 11.0918 10.0325 11.3171C9.93871 11.4742 9.80062 11.5995 9.6268 11.6814C9.34822 11.8128 9.02297 11.8276 8.72105 11.7971C8.3677 11.7609 8.02007 11.6561 7.69911 11.5061C7.38148 11.3576 7.07908 11.1599 6.83669 10.9047C6.62145 10.678 6.45049 10.399 6.41049 10.0842C6.36716 9.74227 6.49668 9.41273 6.70335 9.14558C6.84669 8.95891 7.0267 8.78795 7.221 8.65604ZM2.06461 10.5432C1.95032 9.96751 2.03223 9.34844 2.29938 8.82509C2.56939 8.29602 3.04036 7.86315 3.61657 7.69552C4.1404 7.54266 4.68852 7.63219 5.12615 7.96172C5.55474 8.28459 5.83999 8.78033 5.97809 9.2932C6.11905 9.81656 6.12 10.3899 5.91857 10.898C5.89999 10.9452 5.87904 10.9904 5.85666 11.0356C5.84427 11.0752 5.83142 11.1142 5.81713 11.1528C5.62284 11.68 5.22235 12.1381 4.67995 12.3171C4.10469 12.5071 3.49514 12.3452 3.00798 12.0104C2.50844 11.6671 2.18223 11.1347 2.06461 10.5432ZM8.58724 16.052C8.84915 15.9882 9.15107 16.0954 9.28583 16.3363C9.4187 16.573 9.38489 16.8668 9.30631 17.1211C9.24345 17.6916 8.88344 18.2364 8.38151 18.5131C8.18865 18.6193 7.95102 18.7012 7.73006 18.6416C7.50244 18.5802 7.38386 18.3759 7.35195 18.1535C7.311 17.8669 7.37291 17.5573 7.48053 17.2906C7.58958 17.0197 7.74197 16.7606 7.92673 16.5344C8.09769 16.3258 8.31771 16.1177 8.58724 16.052ZM2.76988 17.2706C2.42367 16.7425 2.16509 16.1039 2.18842 15.463C2.20652 14.9691 2.44748 14.5148 2.91369 14.3148C3.38038 14.1143 3.9304 14.1958 4.38327 14.3934C4.85996 14.6015 5.24806 14.9434 5.54188 15.3691C5.82332 15.7773 6.04 16.242 6.15477 16.7249C6.21143 16.9644 6.24858 17.2273 6.22763 17.4811C6.21048 17.9054 6.05333 18.334 5.68475 18.575C5.2433 18.864 4.64804 18.7926 4.19469 18.5693C3.61229 18.2826 3.12418 17.8107 2.76988 17.2706Z" fill="#ECEADB"/>
<path d="M13.3764 20.3722C12.4683 20.2274 11.5859 19.9407 10.7511 19.5564C10.7101 19.5374 10.7101 19.475 10.754 19.4593C11.0559 19.3507 11.2849 19.0688 11.4659 18.8164C11.6126 18.6121 11.743 18.3911 11.8469 18.1602C11.8245 18.1368 11.8035 18.1121 11.7826 18.0883C11.7635 18.0954 11.744 18.1021 11.7249 18.1102C11.3792 18.2545 11.0783 18.4835 10.7587 18.6754C10.4225 18.8773 10.0539 19.0083 9.68106 19.1245C8.86722 19.3783 8.00671 19.544 7.15573 19.5988C6.42046 19.6464 5.67758 19.6188 4.95231 19.484C4.70611 19.4383 4.4623 19.3793 4.22229 19.3093C4.65612 19.5497 5.11851 19.7378 5.60091 19.845C6.43475 20.0307 7.33955 20.0074 8.17053 19.8059C8.66055 19.7869 9.14723 19.6897 9.60963 19.5269C9.4682 19.6259 9.31867 19.7136 9.16295 19.7912C9.37105 19.9307 9.58916 20.0574 9.82059 20.166C10.8092 20.6303 11.9016 20.6788 12.974 20.5798C13.2931 20.5503 13.6107 20.5026 13.926 20.4398C13.7422 20.4231 13.5588 20.4012 13.3764 20.3722Z" fill="#ECEADB"/>
<path d="M6.15762 6.56214C6.43905 6.62595 6.70763 6.71976 6.96288 6.83881C6.89431 6.79072 6.82431 6.74452 6.75383 6.69928C6.25667 6.38308 5.72141 6.1326 5.21473 5.83354C4.87186 5.63115 4.53089 5.40352 4.29945 5.07684C4.28755 5.15161 4.2766 5.22685 4.26755 5.30209C4.2185 5.71306 4.21135 6.13783 4.28374 6.54785C4.899 6.41785 5.54331 6.42261 6.15762 6.56214Z" fill="#ECEADB"/>
<path d="M4.81142 7.00026C5.44382 6.97835 6.08099 7.05312 6.68673 7.23789C7.15865 7.3817 7.61247 7.5979 8.00725 7.89505C7.89963 7.73124 7.7801 7.57552 7.64819 7.43075C7.62628 7.42027 7.60533 7.40885 7.58342 7.39837C7.1015 7.09645 6.56339 6.89883 6.00813 6.80739C5.4143 6.65024 4.78998 6.57691 4.1971 6.71263C3.8109 6.80073 3.46088 6.99121 3.19135 7.27789C3.1804 7.28408 3.16897 7.29074 3.15802 7.29694C3.68947 7.1155 4.25092 7.01931 4.81142 7.00026Z" fill="#ECEADB"/>
<path d="M7.12292 16.9506C7.25292 16.6215 7.34388 16.2763 7.49198 15.9544C7.60437 15.7091 7.76342 15.501 7.97486 15.3443C8.14581 15.2053 8.34868 15.1048 8.5625 15.051C8.69346 15.0177 8.8287 15.002 8.96347 15.0034C9.00728 14.9996 9.05157 14.9962 9.09538 14.9943C9.28777 14.9858 9.48253 14.9972 9.67349 15.0291C9.66492 14.9839 9.62015 14.9443 9.58301 14.9253C9.22443 14.74 8.98394 14.3072 9.04585 13.9048C9.09919 13.5605 9.35444 13.28 9.59111 13.0424C9.73302 12.8995 9.8816 12.7643 10.0221 12.62C10.0359 12.6057 10.043 12.5909 10.0459 12.5757C10.1121 12.5276 10.1745 12.4738 10.2302 12.4138C10.1321 12.4938 10.0283 12.5671 9.91969 12.6304C9.5892 12.8243 9.213 12.9471 8.83061 12.9743C8.47774 12.999 8.12534 12.9176 7.79485 12.7981C7.30722 12.6214 6.71957 12.3019 6.44718 11.8242C6.44194 12.0695 6.3748 12.3085 6.20813 12.5038C6.00431 12.7423 5.69667 12.8671 5.39571 12.9295C5.03236 13.0052 4.65426 13.0028 4.28662 12.9638C3.91566 12.9247 3.54803 12.8476 3.19278 12.7328C3.11849 12.7162 3.04372 12.699 2.96991 12.6809C2.89848 12.6633 2.84943 12.7019 2.84467 12.7509C3.19373 12.9114 3.53231 13.0957 3.85946 13.2976C4.72426 13.8329 5.5381 14.5029 6.13193 15.3353C6.41385 15.7301 6.6429 16.1687 6.76814 16.6387C6.84053 16.9111 6.87387 17.1911 6.86815 17.4706C6.96435 17.3039 7.05196 17.1316 7.12292 16.9506Z" fill="#9B6F11"/>
<path d="M6.43096 12.7657C6.19429 13.2005 5.67474 13.4219 5.22139 13.5467C5.13329 13.571 5.04329 13.5919 4.95233 13.611C5.02091 13.6272 5.08901 13.6457 5.15615 13.6681C5.86999 13.9038 6.43096 14.4548 6.72955 15.1391C6.76812 15.2272 6.80145 15.3167 6.83145 15.4072C6.87193 15.2796 6.92765 15.1572 7.00575 15.0505C7.18956 14.8001 7.52196 14.6758 7.82673 14.7162C8.00817 14.7405 8.1715 14.8196 8.30579 14.9343C8.08007 14.4234 8.27912 13.8629 8.61723 13.4467C8.70247 13.3414 8.79676 13.2438 8.89772 13.1524C8.66438 13.2105 8.4258 13.2448 8.18579 13.2514C7.83482 13.261 7.44671 13.2205 7.1348 13.0481C6.89717 12.9167 6.68764 12.7262 6.52144 12.5085C6.50478 12.5971 6.47573 12.6838 6.43096 12.7657Z" fill="#E6A323"/>
</g>
</svg>
